inDegrees=yes
name=ik_S41_A11_T02
DataType=double
version=3
OpenSimVersion=4.3-2021-08-27-4bc7ad9
endheader
time	pelvis_tilt	pelvis_list	pelvis_rotation	pelvis_tx	pelvis_ty	pelvis_tz	hip_flexion_r	hip_adduction_r	hip_rotation_r	knee_angle_r	knee_angle_r_beta	ankle_angle_r	subtalar_angle_r	mtp_angle_r	hip_flexion_l	hip_adduction_l	hip_rotation_l	knee_angle_l	knee_angle_l_beta	ankle_angle_l	subtalar_angle_l	mtp_angle_l	lumbar_extension	lumbar_bending	lumbar_rotation	arm_flex_r	arm_add_r	arm_rot_r	elbow_flex_r	pro_sup_r	wrist_flex_r	wrist_dev_r	arm_flex_l	arm_add_l	arm_rot_l	elbow_flex_l	pro_sup_l	wrist_flex_l	wrist_dev_l
3.620000000000003	0.5765282303003606	-0.8493754165490915	18.86797275155193	0	0.9399999999999999	0	27.61743960203423	-8.901132004909799	-8.01103052088143	32.3560997337699	0.5647204734579455	0	0	0	27.61743960203423	-8.901132004909799	-8.01103052088143	32.3560997337699	0.5647204734579455	0	0	0	0.8089314733666417	-1.048620365745971	5.619515336338331	7.621275429016849	-4.970907409676245	-9.192345287749458	-4.414321282990558	107.2536958972222	0	0	9.192452603871221	-1.852425661863251	-4.774844791226139	7.457838150149548	122.6710756114673	0	0
3.640000000000003	0.5718125107118589	-0.8633458211585144	18.92785216757865	0	0.9399999999999999	0	27.62474058224486	-8.902654096585929	-8.012801554796546	32.36297405330819	0.5648404529677227	0	0	0	27.62474058224486	-8.902654096585929	-8.012801554796546	32.36297405330819	0.5648404529677227	0	0	0	0.7989197239285742	-1.059896436282476	5.534078162882463	8.884626145312341	-5.258865908903897	-8.603550605998164	-5.423065692774761	106.3682868383974	0	0	9.272253268638623	-1.848913067515741	-4.793152225730719	7.438925205777157	122.7052310261032	0	0
3.660000000000003	0.5968706955411306	-0.8886494801322014	18.77203334817544	0	0.9399999999999999	0	27.63405049712226	-8.904595255800213	-8.015060490408356	32.37173132508391	0.5649932961937011	0	0	0	27.63405049712226	-8.904595255800213	-8.015060490408356	32.37173132508391	0.5649932961937011	0	0	0	0.8147258530401941	-1.092128177063915	5.618303743194971	10.24082879368805	-5.968063413155243	-8.230283485166984	-5.907774785945502	103.4914995575652	0	0	9.244184551054685	-1.903373577564404	-4.868757631617442	7.475858663717114	122.7325708389076	0	0
3.680000000000003	0.6322185297273266	-0.9065699365638549	18.5538684704948	0	0.9399999999999999	0	27.64372915289912	-8.906616271141036	-8.017411548322222	32.38081451035659	0.565151827683278	0	0	0	27.64372915289912	-8.906616271141036	-8.017411548322222	32.38081451035659	0.565151827683278	0	0	0	0.8449092060349137	-1.119635350225133	5.783359381957601	11.72169998593496	-7.063270119740202	-8.562751914897589	-6.388128288570694	101.3508386625574	0	0	9.258808962185848	-1.921206151751071	-4.925480395910953	7.461967360127401	122.7419424513416	0	0
3.700000000000003	0.6742317032425282	-0.9405043893336303	18.39234531379846	0	0.9399999999999999	0	27.75130668551131	-8.922648844748487	-8.03878375349686	32.50859078688131	0.567381944414573	0	0	0	27.75130668551131	-8.922648844748487	-8.03878375349686	32.50859078688131	0.567381944414573	0	0	0	0.871476663582656	-1.162105086716017	5.936123946252551	13.29672459582579	-8.563107620626214	-9.682900070800864	-6.551245545063109	99.68309724422242	0	0	9.265334590874527	-1.933537591818206	-4.956186918268678	7.458129983253549	122.7525692323342	0	0
3.720000000000003	0.6790277298317013	-1.066978129773209	18.07182821922313	0	0.9399999999999999	0	27.76012229591855	-8.924473275213586	-8.040915716645477	32.51686139523844	0.5675262937615478	0	0	0	27.76012229591855	-8.924473275213586	-8.040915716645477	32.51686139523844	0.5675262937615478	0	0	0	0.8388098906388697	-1.28231193632515	6.200411762894034	14.92287431671517	-10.09459019889084	-11.58488133272708	-7.759543094435657	102.1419536188313	0	0	9.436073117039118	-2.090790166780676	-5.060181785403298	7.419635211458135	122.7831957146679	0	0
3.740000000000003	0.6972205224738947	-1.106272823436131	17.75309074895415	0	0.9399999999999999	0	27.85610395402063	-8.93871692543007	-8.059938877545765	32.63086634524215	0.5695160555026842	0	0	0	27.85610395402063	-8.93871692543007	-8.059938877545765	32.63086634524215	0.5695160555026842	0	0	0	0.8403361265169655	-1.327754177955946	6.429079203608615	16.37985328409099	-12.44251145160341	-14.50113322240915	-8.054349799039887	103.8501771194535	0	0	9.505319953960589	-2.117472794656404	-5.202600221211871	7.390806859116588	122.8504660096751	0	0
3.760000000000003	0.7380811819174974	-1.149106907070867	16.67665497995508	0	0.9399999999999999	0	28.18358851619446	-8.985757891166289	-8.123743724319176	33.02339351081916	0.576366946945524	0	0	0	28.18358851619446	-8.985757891166289	-8.123743724319176	33.02339351081916	0.576366946945524	0	0	0	0.8730423893819432	-1.365698198250112	7.482192536904944	17.68165871261462	-15.65195235119877	-18.26179489191027	-0.4799516583351544	95.66905322598582	0	0	9.494779775966089	-2.148617837093235	-5.229207020657822	7.406650794701885	122.911130741183	0	0
3.780000000000003	0.7564580398768658	-1.17241389037184	16.43325116365945	0	0.9399999999999999	0	28.26697794474656	-8.997752990019206	-8.139998785360767	33.12254259789803	0.5780974249653967	0	0	0	28.26697794474656	-8.997752990019206	-8.139998785360767	33.12254259789803	0.5780974249653967	0	0	0	0.8754799529757779	-1.39698446351012	7.754297579449423	18.95309519858385	-18.28200618415343	-21.77522279078562	-1.913848524320791	99.70596923216924	0	0	9.514402603117034	-2.10994268672603	-5.127630050107501	7.392311024610764	122.8671106015517	0	0
3.800000000000003	0.7727368838941602	-1.243733013851035	15.95259899592393	0	0.9399999999999999	0	28.81995483329365	-9.072674642111004	-8.244554771191163	33.78803201555306	0.5897124064406567	0	0	0	28.81995483329365	-9.072674642111004	-8.244554771191163	33.78803201555306	0.5897124064406567	0	0	0	0.8689158762196876	-1.485113076405597	8.307352872704453	18.86314583538197	-18.74538494835552	-22.05955160369217	7.620112033039687	92.02106798417984	0	0	9.632577211585321	-2.066115957103187	-4.989424112592987	7.304587279088679	122.7377113173645	0	0
3.820000000000003	0.7789698709004412	-1.335272008398675	15.52301684578699	0	0.9399999999999999	0	28.97976008812372	-9.09434621021126	-8.274762587841277	33.97798535406729	0.5930277176228854	0	0	0	28.97976008812372	-9.09434621021126	-8.274762587841277	33.97798535406729	0.5930277176228854	0	0	0	0.8533179461723954	-1.570133432184473	8.821080015436571	20.12651078143191	-21.60132097160633	-25.0504334853138	11.37156991843007	91.51881914529899	0	0	9.766954997336789	-2.128957619287285	-5.027571766384846	7.267120052362369	122.794337322775	0	0
3.840000000000003	0.7780953262647088	-1.431232749337971	15.64620096683817	0	0.9399999999999999	0	29.41139820855696	-9.148275224000779	-8.353021435929072	34.49815417478216	0.6021063762105759	0	0	0	29.41139820855696	-9.148275224000779	-8.353021435929072	34.49815417478216	0.6021063762105759	0	0	0	0.8227149598719908	-1.659179231138093	8.837164734676763	20.0466259401463	-21.84076254441506	-25.44394156639873	16.95949442410284	88.37540294550759	0	0	9.91509605438919	-2.19213268341684	-5.074490541624321	7.264522356289979	122.8761920002194	0	0
3.860000000000003	0.8385211971299438	-1.486262165626411	14.90037363266993	0	0.9399999999999999	0	29.54783259116917	-9.165685887327195	-8.377963902742692	34.66176494403843	0.6049619228258187	0	0	0	29.54783259116917	-9.165685887327195	-8.377963902742692	34.66176494403843	0.6049619228258187	0	0	0	0.842124000087741	-1.724453427795862	9.650532162081799	25.43304215291677	-29.46576522163073	-29.37244094216341	13.07513420889222	91.79592709967386	0	0	9.954857228118527	-2.254911649765828	-5.109013505964363	7.164253938687518	122.8491967559843	0	0
3.880000000000003	0.9369837066885157	-1.490971948223745	14.74322998459985	0	0.9399999999999999	0	29.7413850134946	-9.189918431890773	-8.413007587283884	34.893972440914	0.6090147081941117	0	0	0	29.7413850134946	-9.189918431890773	-8.413007587283884	34.893972440914	0.6090147081941117	0	0	0	0.9362146955223491	-1.757581319354606	9.806408688900341	27.77297727059027	-32.12793590961283	-29.13473745726851	16.20705947333891	89.43957710969991	0	0	9.815145629902101	-2.279308562806447	-5.200123337241724	7.123039261298611	122.8218554669316	0	0
3.900000000000003	1.034468771818165	-1.51621348645784	14.76862550563668	0	0.9399999999999999	0	29.82731155870339	-9.200433146416598	-8.428378436875954	34.99714260817282	0.6108153673026114	0	0	0	29.82731155870339	-9.200433146416598	-8.428378436875954	34.99714260817282	0.6108153673026114	0	0	0	1.031836015296971	-1.803838687524356	9.872267867289462	30.55737658234098	-34.34632660083446	-28.56032664639282	13.07865377962782	90.1042213836205	0	0	9.672770973714735	-2.340746983942579	-5.195747233273556	7.097197858389463	122.7849659317522	0	0
3.920000000000003	1.063011852517033	-1.526837533328264	14.78622418407611	0	0.9399999999999999	0	29.92105810048117	-9.211839203836501	-8.445103704796061	35.10932567859018	0.6127733312463911	0	0	0	29.92105810048117	-9.211839203836501	-8.445103704796061	35.10932567859018	0.6127733312463911	0	0	0	1.06306714362505	-1.819155799424774	9.883280396326613	33.8482731100388	-36.57540466053197	-27.30261789003718	9.813144902216299	90.60951797492977	0	0	9.631727940051428	-2.386986890811652	-5.339253159631101	7.113848072240009	122.8304764536796	0	0
3.940000000000003	1.105443549068353	-1.588328477207034	14.92377694727288	0	0.9399999999999999	0	30.19452322653785	-9.244689940228282	-8.49352970765559	35.4387730884327	0.6185232732603103	0	0	0	30.19452322653785	-9.244689940228282	-8.49352970765559	35.4387730884327	0.6185232732603103	0	0	0	1.097716218488357	-1.867308884120557	9.906498842713049	37.12841700826117	-39.4908877321393	-25.57911226969971	17.90943251285546	86.56776904829729	0	0	9.588901022545475	-2.45917439276145	-5.17497658527951	7.096082484960576	122.7599413017145	0	0
3.960000000000003	1.117191195097717	-1.665391169113567	15.23970773249844	0	0.9399999999999999	0	30.45740113513512	-9.275495941407243	-8.539462978277117	35.75579343663179	0.6240563221322032	0	0	0	30.45740113513512	-9.275495941407243	-8.539462978277117	35.75579343663179	0.6240563221322032	0	0	0	1.103867506148219	-1.920177569002631	9.804358610841918	40.74677139015164	-42.33848217952412	-23.67296012379591	25.76884166618457	83.88250400393736	0	0	9.645026296791769	-2.570895499608567	-5.196765439911662	7.086533141413966	122.8133527926897	0	0
3.980000000000003	1.158785922498978	-1.725932332211032	15.48004426014851	0	0.9399999999999999	0	30.66475351880957	-9.29940408978311	-8.575382528457553	36.0051349842073	0.6284081530994139	0	0	0	30.66475351880957	-9.29940408978311	-8.575382528457553	36.0051349842073	0.6284081530994139	0	0	0	1.134368734720721	-1.979169319216443	9.776136972757026	44.66663800073446	-44.68244278376289	-21.23048596946388	27.89469344618398	82.41696700188152	0	0	9.622519545593166	-2.675938334882415	-4.962742530718596	6.964303605125806	122.5723426815662	0	0
4.000000000000003	1.338528662773187	-1.732588079381506	15.84613524069239	0	0.9399999999999999	0	30.85256940056253	-9.320813538178022	-8.607722823043703	36.23028399574319	0.6323377446583258	0	0	0	30.85256940056253	-9.320813538178022	-8.607722823043703	36.23028399574319	0.6323377446583258	0	0	0	1.306537942025845	-2.027675877413512	9.696843781643867	48.32335328812003	-46.86766080161146	-18.77534285037971	29.70690625964382	81.25689719034602	0	0	9.289204873341594	-2.85118530780541	-5.230704260447657	7.050153085570889	122.9155127150677	0	0
